<svg width="217" height="218" viewBox="0 0 217 218" fill="none" xmlns="http://www.w3.org/2000/svg">
<rect y="0.5" width="217" height="217" rx="108.5" fill="#F5EAFD"/>
<path d="M153 129.272C153 152.619 92.9207 164.5 73.8246 164.5C54.7285 164.5 72.5719 125.969 72.5719 102.622C72.5719 79.2753 99.0767 85.1614 118.173 85.1614C137.269 85.1614 153 105.926 153 129.272Z" fill="#F3F7FF"/>
<g clip-path="url(#clip0_1266_39590)">
<path d="M143.629 99.9244C143.34 99.0584 142.885 98.2418 142.215 97.5508L115.955 77.013C112.53 74.411 110.785 74.411 107.418 77.013L81.2716 97.5508C80.6015 98.2418 80.1448 99.0584 79.8555 99.9244L111.686 128.72C111.686 128.721 143.629 99.9244 143.629 99.9244Z" fill="#D07C40"/>
<path d="M87.7803 81.415H135.649V122.55H87.7803V81.415Z" fill="#E4E7E7"/>
<path d="M83.0885 138.314L111.676 115.349L140.338 138.316C141.397 137.758 142.266 136.895 142.847 135.825L115.952 114.041C112.558 111.457 110.773 111.416 107.416 114.041L80.5635 135.79C81.1419 136.872 82.0155 137.75 83.0885 138.314Z" fill="#E8AB54"/>
<path d="M95.7578 91.6992V95.8129H127.67V91.6992H95.7578ZM95.7578 104.038H127.67V99.9264H95.7578V104.038Z" fill="#C2C5C5"/>
<path d="M111.714 124.607L143.627 99.9248V134.891C143.627 138.3 140.948 141.062 137.643 141.062H85.7854C82.4805 141.062 79.8018 138.3 79.8018 134.891V99.9248C79.8018 99.9248 111.714 124.607 111.714 124.607Z" fill="#E8AB54"/>
<path d="M138.282 140.994C139.574 140.852 140.743 140.294 141.654 139.439L111.677 115.347L81.7686 139.439C82.682 140.296 83.8488 140.852 85.1453 140.996L138.282 140.994Z" fill="#F4B459"/>
<path d="M80.5635 137.847C81.1419 138.929 82.0174 139.807 83.0885 140.372L111.676 117.409L140.338 140.374C141.397 139.817 142.266 138.953 142.847 137.883L115.952 116.094C112.185 113.216 111.271 113.084 107.416 116.094C107.416 116.094 80.5635 137.847 80.5635 137.847Z" fill="#F9D7A7"/>
</g>
<defs>
<clipPath id="clip0_1266_39590">
<rect width="64" height="66" fill="white" transform="translate(79.7139 75.0615)"/>
</clipPath>
</defs>
</svg>
