<svg width="20" height="20" viewBox="0 0 20 20" fill="none" xmlns="http://www.w3.org/2000/svg">
<path d="M10.9161 10.0001L14.8099 6.10608C15.0634 5.85279 15.0634 5.44325 14.8099 5.18997C14.5567 4.93668 14.1471 4.93668 13.8939 5.18997L9.99994 9.08396L6.10614 5.18997C5.85274 4.93668 5.44333 4.93668 5.19005 5.18997C4.93665 5.44325 4.93665 5.85279 5.19005 6.10608L9.08385 10.0001L5.19005 13.8941C4.93665 14.1474 4.93665 14.5569 5.19005 14.8102C5.31628 14.9365 5.48225 15 5.6481 15C5.81395 15 5.9798 14.9365 6.10614 14.8102L9.99994 10.9162L13.8939 14.8102C14.0202 14.9365 14.1861 15 14.3519 15C14.5178 15 14.6836 14.9365 14.8099 14.8102C15.0634 14.5569 15.0634 14.1474 14.8099 13.8941L10.9161 10.0001Z" fill="#5D5775"/>
</svg>
