<svg width="21" height="20" viewBox="0 0 21 20" fill="none" xmlns="http://www.w3.org/2000/svg">
<g id="downloads">
<path id="Vector" fill-rule="evenodd" clip-rule="evenodd" d="M4.90231 17.4983C4.50389 17.4983 4.18164 17.176 4.18164 16.7776C4.18164 16.3792 4.50389 16.057 4.90231 16.057H16.4301C16.8285 16.057 17.1507 16.3792 17.1507 16.7776C17.1507 17.176 16.8285 17.4983 16.4301 17.4983H4.90231ZM11.1422 14.8881L11.1305 14.8998L11.1129 14.9144L11.1071 14.9203L11.0983 14.9291L11.0954 14.932L11.0866 14.9379L11.0807 14.9408L11.0749 14.9437L11.0661 14.9496L11.0544 14.9584L11.0456 14.9642L11.0338 14.973L11.0192 14.9818L11.0133 14.9847C11.0104 14.9877 10.9987 14.9935 10.9635 15.0082C10.8698 15.0492 10.7702 15.0726 10.6677 15.0726C10.5651 15.0726 10.4626 15.0492 10.3718 15.0082C10.3366 14.9935 10.3278 14.9847 10.322 14.9847L10.3161 14.9818L10.3015 14.973L10.2897 14.9642L10.281 14.9584L10.2692 14.9496L10.2604 14.9437L10.2546 14.9408L10.2487 14.9379L10.2399 14.932L10.2282 14.9232L10.2224 14.9174L10.2048 14.9027L10.1931 14.891C10.1813 14.8822 10.1696 14.8705 10.1608 14.8588L6.80944 11.5074C6.52821 11.2261 6.52821 10.7691 6.80944 10.4879C7.09068 10.2067 7.54769 10.2067 7.82892 10.4879L9.95284 12.6118V3.22262C9.95284 2.8242 10.2751 2.50195 10.6735 2.50195C11.0719 2.50195 11.3942 2.8242 11.3942 3.22262V12.6118L13.5181 10.4879C13.7993 10.2067 14.2563 10.2067 14.5376 10.4879C14.8188 10.7691 14.8188 11.2261 14.5376 11.5074L11.1862 14.8588L11.154 14.891L11.1422 14.8881Z" fill="white"/>
</g>
</svg>
