<svg width="30" height="26" viewBox="0 0 30 26" fill="none" xmlns="http://www.w3.org/2000/svg">
<path d="M12.7374 5.44629V13.4072M12.7374 13.4072L15.9218 10.0134M12.7374 13.4072L9.67871 10.0134" stroke="white" stroke-width="1.17319" stroke-linecap="round" stroke-linejoin="round"/>
<path d="M7.29053 12.0654V15.7526C7.29053 15.7989 7.32805 15.8364 7.37433 15.8364H18.2263C18.2726 15.8364 18.3101 15.7989 18.3101 15.7526V12.0654" stroke="white" stroke-width="1.17319" stroke-linecap="round"/>
<path d="M22.9609 18.6452L24.1892 20.5073C24.2225 20.5578 24.2967 20.5575 24.3295 20.5067L26.4805 17.1787" stroke="white" stroke-width="1.17319" stroke-linecap="round"/>
<circle cx="24.7208" cy="18.8546" r="4.69276" stroke="white" stroke-width="1.17319"/>
<path fill-rule="evenodd" clip-rule="evenodd" d="M20.249 21.6628C18.2304 23.3619 15.6244 24.3856 12.7794 24.3856C6.36947 24.3856 1.17319 19.1893 1.17319 12.7794C1.17319 6.36947 6.36947 1.17319 12.7794 1.17319C19.1893 1.17319 24.3856 6.36947 24.3856 12.7794C24.3856 13.0512 24.3763 13.3209 24.3579 13.5881C24.4778 13.5799 24.5988 13.5758 24.7207 13.5758C24.9961 13.5758 25.2665 13.5969 25.5304 13.6375C25.5493 13.3539 25.5588 13.0678 25.5588 12.7794C25.5588 5.72153 19.8373 0 12.7794 0C5.72153 0 0 5.72153 0 12.7794C0 19.8373 5.72153 25.5588 12.7794 25.5588C15.9008 25.5588 18.7609 24.4397 20.9802 22.5808C20.704 22.3035 20.4585 21.9957 20.249 21.6628Z" fill="white"/>
</svg>
