<svg width="30" height="30" viewBox="0 0 30 30" fill="none" xmlns="http://www.w3.org/2000/svg">
<g id="dribbble-logo">
<path id="Vector" d="M15 3C8.38313 3 3 8.38319 3 15C3 21.6168 8.38313 27 15 27C21.6169 27 27 21.6168 27 15C27 8.38319 21.6169 3 15 3ZM22.8199 8.65948C24.1671 10.3178 24.9965 12.4108 25.0654 14.6925C22.57 14.1759 20.3103 14.2365 18.3155 14.6276C17.9543 13.7829 17.5804 12.9782 17.203 12.2177C19.3755 11.2818 21.2667 10.0864 22.8199 8.65948ZM21.4681 7.28559C19.9264 8.69288 18.1397 9.73486 16.3102 10.5041C14.9674 8.04858 13.6826 6.19942 12.9 5.14857C13.5777 5.0042 14.2799 4.92674 15 4.92674C17.4607 4.92674 19.7169 5.81484 21.4681 7.28559ZM10.954 5.77785C11.545 6.54366 12.9527 8.46116 14.4648 11.1893C10.6645 12.4274 6.97701 12.636 5.20507 12.6554C5.94364 9.57006 8.10427 7.03305 10.954 5.77785ZM4.93725 14.587C4.95626 14.587 4.97463 14.5872 4.99403 14.5872C6.21839 14.5872 8.46161 14.5048 11.1025 14.0233C12.6092 13.7485 14.0379 13.3787 15.3785 12.9204C15.7275 13.616 16.0745 14.3497 16.4109 15.1187C14.5337 15.723 12.9507 16.5926 11.6968 17.4561C9.59414 18.9041 8.12109 20.5106 7.31675 21.5039C5.82753 19.7476 4.92672 17.4777 4.92672 15C4.92672 14.8615 4.9316 14.7242 4.93725 14.587ZM8.70515 22.8558C9.39761 21.9839 10.8071 20.3969 12.8459 19.0044C14.2315 18.058 15.665 17.3549 17.1407 16.8933C17.9969 19.1127 18.7279 21.5649 19.1638 24.1687C17.8937 24.7478 16.4846 25.0733 15 25.0733C12.6196 25.0733 10.431 24.2416 8.70515 22.8558ZM20.9364 23.1312C20.4872 20.7399 19.8173 18.4914 19.0429 16.4365C20.9478 16.1151 22.9165 16.1813 24.9385 16.6355C24.5025 19.2932 23.0236 21.6032 20.9364 23.1312Z" fill="#5D5775"/>
</g>
</svg>
