<svg width="16" height="24" viewBox="0 0 12 18" fill="none" xmlns="http://www.w3.org/2000/svg">
<g id="Group">
<path id="Vector" d="M5.9823 8.99974C5.9823 7.37971 7.31208 6.06641 8.95243 6.06641C10.5928 6.06641 11.9226 7.37974 11.9226 8.99974C11.9226 10.6198 10.5927 11.9331 8.95243 11.9331C7.31204 11.9331 5.9823 10.6198 5.9823 8.99974Z" fill="#00BCFF"/>
<path id="Vector_2" d="M0.041748 14.8661C0.041748 13.246 1.37152 11.9327 3.01188 11.9327L4.5947 11.1074L5.98201 11.9327V14.8661C5.98201 16.4861 4.65223 17.7994 3.01188 17.7994C1.37152 17.7994 0.041748 16.4861 0.041748 14.8661Z" fill="#00CF7F"/>
<path id="Vector_3" d="M5.9818 0.199219L4.3656 2.97226L5.9818 6.06589H8.91026C10.5507 6.06589 11.8804 4.75259 11.8804 3.13256C11.8804 1.51252 10.5506 0.199219 8.91026 0.199219H5.9818Z" fill="#FF7361"/>
<path id="Vector_4" d="M0 3.13256C0 4.75259 1.32978 6.06589 2.97013 6.06589L4.54571 6.66691L5.98192 6.06589V0.199219H2.97009C1.32978 0.199219 0 1.51252 0 3.13256Z" fill="#FF4D12"/>
<path id="Vector_5" d="M0.041748 8.99978C0.041748 10.6198 1.37152 11.9331 3.01188 11.9331H5.98201V6.06641H3.01188C1.37152 6.06641 0.041748 7.37974 0.041748 8.99978Z" fill="#B659FF"/>
</g>
</svg>
