<svg width="152" height="22" viewBox="0 0 152 22" fill="none" xmlns="http://www.w3.org/2000/svg">
<g clip-path="url(#clip0_4890_14924)">
<path d="M24.917 7.89941H25.7197L26.0013 9.04754H27.9657V10.065H26.1985V14.1419C26.1985 14.8294 26.4942 15.1388 27.0786 15.1388H27.9657V16.1563H26.7547C25.5366 16.1563 24.924 15.5169 24.924 14.2382L24.917 7.89941Z" fill="#AD54F2"/>
<path d="M32.5995 9.04785C34.6695 9.04785 35.7046 10.047 35.7046 12.0454C35.7031 12.3512 35.6819 12.6565 35.6412 12.9597H30.5295C30.5295 14.4379 31.4026 15.1254 33.1346 15.1254C33.8784 15.1361 34.6201 15.0459 35.3384 14.8572V15.8816C34.5758 16.0775 33.7893 16.17 33.0008 16.1566C30.5013 16.1566 29.248 14.9397 29.248 12.5197C29.248 10.0997 30.3676 9.04785 32.5995 9.04785ZM30.5295 11.9147H34.5006C34.5006 10.6704 33.8528 10.0516 32.6347 10.0516C32.3657 10.0113 32.0909 10.0302 31.8302 10.1067C31.5696 10.1833 31.3297 10.3155 31.1281 10.494C30.9264 10.6725 30.768 10.8926 30.6645 11.1384C30.561 11.3841 30.5148 11.6494 30.5295 11.9147Z" fill="#AD54F2"/>
<path d="M37.4287 16.1573V9.04855H38.2947L38.506 9.9423C39.1246 9.37536 39.9389 9.05631 40.7872 9.04855C41.2049 8.99867 41.6285 9.06362 42.0104 9.2361C42.3922 9.40858 42.7173 9.68171 42.9488 10.0248C43.604 9.42563 44.4596 9.0788 45.3567 9.04855C47.0278 9.04855 47.8633 9.94918 47.8633 11.7504V16.1573H46.5748V11.6886C46.5748 10.6298 46.1054 10.1004 45.1667 10.1004C44.8056 10.1157 44.4516 10.2036 44.127 10.3585C43.8022 10.5135 43.5138 10.7322 43.2797 11.0011V16.1573H41.9982V11.6886C41.9982 10.6161 41.5476 10.0798 40.6393 10.0798C40.2706 10.0876 39.9081 10.1741 39.5773 10.3333C39.2464 10.4925 38.9553 10.7203 38.7242 11.0011V16.1573H37.4287Z" fill="#AD54F2"/>
<path d="M49.9346 9.33664C50.9195 9.14227 51.9221 9.04553 52.9269 9.04789C55.2645 9.04789 56.4475 10.1754 56.4475 12.4235C56.4475 14.9123 55.2789 16.1566 52.9269 16.1566C52.3457 16.1547 51.7709 16.0377 51.2371 15.8129V18.7279H49.9346V9.33664ZM51.216 14.706C51.7408 14.9521 52.3166 15.0768 52.8988 15.0704C54.4149 15.0704 55.1709 14.1835 55.166 12.4098C55.166 10.8651 54.4149 10.0929 52.9129 10.0929C52.3431 10.0866 51.7743 10.1396 51.216 10.251V14.706Z" fill="#AD54F2"/>
<path d="M59.51 6.47656V16.1566H58.2285V6.47656H59.51Z" fill="#AD54F2"/>
<path d="M61.3125 14.0116C61.3125 12.5541 62.2961 11.8254 64.2627 11.8254C64.8988 11.8244 65.5338 11.868 66.1638 11.956V11.2685C66.1638 10.4504 65.509 10.0447 64.2066 10.0447C63.4262 10.0475 62.6508 10.1609 61.904 10.3816V9.38473C62.6513 9.16737 63.4267 9.05396 64.2066 9.04785C66.3704 9.04785 67.4498 9.78348 67.4454 11.2547V16.1566H66.741L66.2977 15.4691C65.5944 15.9244 64.7683 16.1639 63.9246 16.1566C62.1832 16.1566 61.3125 15.4416 61.3125 14.0116ZM64.2627 12.836C63.1503 12.836 62.594 13.221 62.594 13.991C62.594 14.7541 63.0374 15.1391 63.9108 15.1391C64.7286 15.1652 65.5305 14.9178 66.1848 14.4379V12.9735C65.5481 12.8823 64.906 12.8363 64.2627 12.836Z" fill="#AD54F2"/>
<path d="M69.5225 7.89941H70.3326L70.6068 9.04754H72.5713V10.065H70.804V14.1419C70.804 14.8294 71.0997 15.1388 71.6841 15.1388H72.5713V16.1563H71.3531C70.1354 16.1563 69.5225 15.5169 69.5225 14.2382V7.89941Z" fill="#AD54F2"/>
<path d="M77.2037 9.04785C79.2739 9.04785 80.3087 10.047 80.3087 12.0454C80.3076 12.3512 80.2861 12.6565 80.2454 12.9597H75.1407C75.1407 14.408 76.0092 15.1345 77.7462 15.1391C78.4896 15.149 79.2315 15.0587 79.9496 14.871V15.8816C79.1847 16.077 78.396 16.1695 77.6052 16.1566C75.1054 16.1566 73.8525 14.9397 73.8525 12.5197C73.8525 10.0997 74.9716 9.04785 77.2037 9.04785ZM75.1407 11.9147H79.0767C79.0767 10.6704 78.4219 10.0516 77.2037 10.0516C76.9377 10.0168 76.6673 10.0398 76.4112 10.1189C76.1551 10.198 75.9205 10.3313 75.7234 10.5093C75.5262 10.6872 75.372 10.9055 75.2712 11.1484C75.1704 11.3913 75.1258 11.653 75.1407 11.9147Z" fill="#AD54F2"/>
<path d="M85.794 12.217C85.4299 12.7563 85.2317 13.3862 85.2234 14.032C85.2421 14.5836 85.4206 15.1187 85.7383 15.5751C86.0567 16.0316 86.5005 16.3904 87.0188 16.6102C87.4643 16.7929 87.944 16.8819 88.427 16.8714C88.8907 16.8803 89.3506 16.7863 89.7719 16.5964C90.1403 16.4425 90.452 16.1822 90.6646 15.8503C90.8777 15.5186 90.9812 15.1312 90.962 14.7402C90.9515 14.3752 90.837 14.0204 90.631 13.7158C90.3777 13.3225 90.0357 12.991 89.6309 12.7464L87.2159 11.1652C86.7979 10.9539 86.446 10.6358 86.1977 10.2448C85.9498 9.85375 85.8149 9.4044 85.8077 8.94455C85.8011 8.85297 85.8011 8.76107 85.8077 8.66955C85.8259 8.33707 85.9124 8.01164 86.0622 7.71271C86.2125 7.41379 86.4229 7.14759 86.6812 6.93017C87.2727 6.45211 88.0261 6.20698 88.7932 6.24267C89.448 6.25081 90.1017 6.29905 90.7505 6.38705H91.6306L91.4477 8.44955H91.321C91.3222 8.2263 91.272 8.0057 91.1729 7.8044C91.0743 7.6031 90.9295 7.42638 90.7505 7.28767C90.3308 6.98242 89.8159 6.82925 89.2933 6.85455C88.9882 6.83255 88.6831 6.88375 88.4033 7.00354C88.123 7.12339 87.8779 7.30824 87.6879 7.54205C87.5376 7.74186 87.4544 7.98183 87.4483 8.22955C87.4324 8.48051 87.5183 8.72752 87.6879 8.91705C87.9121 9.15025 88.1709 9.34957 88.4551 9.5083L91.1096 11.1995C91.6063 11.5023 92.0331 11.9027 92.363 12.3752C92.7067 12.8712 92.895 13.454 92.9049 14.0527C92.8972 14.453 92.8163 14.8488 92.6659 15.2214C92.499 15.6544 92.2374 16.0464 91.8982 16.3695C91.5028 16.7277 91.0385 17.0057 90.5324 17.1877C89.9426 17.4128 89.3137 17.5248 88.6803 17.5177C88.0508 17.5252 87.4258 17.4082 86.8431 17.1739C86.364 16.9912 85.9383 16.6972 85.6018 16.3174C85.2658 15.9376 85.0296 15.4836 84.9139 14.9945C84.8572 14.7695 84.8291 14.5387 84.8291 14.307C84.8396 13.5011 85.1359 12.7237 85.6673 12.107L85.794 12.217Z" fill="#AD54F2"/>
<path d="M99.1005 7.01937V15.125C99.1088 15.3571 99.2101 15.5768 99.3825 15.7369C99.4645 15.8171 99.562 15.8803 99.6699 15.9228C99.7773 15.9653 99.893 15.9862 100.009 15.9844H100.185V16.1287H95.8688V15.9844H96.0517C96.1668 15.9857 96.2808 15.9645 96.3876 15.922C96.4939 15.8795 96.5903 15.8165 96.6712 15.7369C96.8414 15.58 96.9444 15.3664 96.9604 15.1387V7.01937H95.0521C94.8638 7.01926 94.6771 7.05617 94.503 7.12783C94.3296 7.1995 94.1726 7.30449 94.041 7.43655C93.9099 7.56866 93.8069 7.72514 93.7386 7.89674C93.6703 8.06839 93.6384 8.25159 93.6439 8.43562V8.60062H93.5029V6.1875C93.7315 6.26549 93.9672 6.32077 94.2073 6.3525C94.5229 6.41069 94.8434 6.44061 95.1645 6.44187H100.882C101.265 6.43918 101.647 6.40002 102.023 6.325C102.204 6.29139 102.383 6.24541 102.557 6.1875V8.60062H102.417V8.43562C102.426 8.25088 102.398 8.06613 102.332 7.89244C102.267 7.71881 102.166 7.5598 102.036 7.425C101.899 7.29322 101.736 7.18949 101.557 7.11986C101.378 7.05017 101.187 7.01602 100.994 7.01937H99.1005Z" fill="#AD54F2"/>
<path d="M113.964 6.59367H113.717C113.529 6.59103 113.345 6.6572 113.204 6.7793C113.134 6.83512 113.078 6.90552 113.041 6.98527C113.003 7.06502 112.984 7.15203 112.985 7.23992V12.6505C113.01 13.1514 112.925 13.6516 112.736 14.1176C112.546 14.5836 112.257 15.0047 111.887 15.3524C111.059 16.0504 109.986 16.4078 108.894 16.3493C107.667 16.4272 106.451 16.0817 105.458 15.373C105.061 15.0405 104.747 14.6233 104.541 14.1537C104.335 13.6841 104.242 13.1746 104.269 12.6643V7.28805C104.273 7.19383 104.255 7.1 104.217 7.01327C104.179 6.92648 104.122 6.84893 104.05 6.78617C103.904 6.65665 103.712 6.58762 103.515 6.59367H103.29V6.45617H107.374V6.59367H107.148C106.957 6.58861 106.771 6.655 106.627 6.7793C106.489 6.90112 106.405 7.07173 106.395 7.25367V12.5474C106.337 13.3815 106.587 14.2082 107.099 14.878C107.348 15.1637 107.661 15.3897 108.014 15.5386C108.367 15.6876 108.75 15.7556 109.134 15.7374C109.526 15.765 109.919 15.7065 110.284 15.5661C110.65 15.4257 110.979 15.2071 111.246 14.9262C111.749 14.3047 112 13.5238 111.95 12.733V7.23305C111.952 7.14246 111.933 7.0527 111.893 6.97053C111.854 6.88836 111.797 6.81593 111.725 6.75867C111.578 6.63509 111.39 6.56892 111.197 6.57305H110.964V6.43555H113.936L113.964 6.59367Z" fill="#AD54F2"/>
<path d="M123.997 7.75484C124.488 8.20815 124.873 8.76002 125.124 9.37245C125.376 9.98487 125.488 10.6433 125.454 11.3023C125.488 11.9614 125.376 12.6198 125.124 13.2322C124.873 13.8446 124.488 14.3965 123.997 14.8498C122.89 15.7638 121.467 16.2309 120.019 16.1561H114.872V16.0117H115.055C115.173 16.014 115.29 15.9926 115.399 15.9489C115.508 15.9051 115.607 15.8399 115.689 15.7573C115.858 15.5928 115.956 15.3715 115.964 15.1386V7.38359C115.939 7.16541 115.833 6.96383 115.665 6.81781C115.497 6.67178 115.28 6.59165 115.055 6.59297H114.872V6.45547H120.019C121.466 6.37869 122.888 6.84333 123.997 7.75484ZM119.836 15.5717C120.467 15.5887 121.088 15.4053 121.603 15.0492C122.125 14.6771 122.521 14.1628 122.744 13.5711C123.026 12.847 123.162 12.0767 123.145 11.3023C123.207 10.1973 122.896 9.103 122.258 8.18797C121.982 7.81622 121.617 7.51642 121.195 7.31501C120.773 7.1136 120.306 7.01674 119.836 7.03297H118.09V15.5717H119.836Z" fill="#AD54F2"/>
<path d="M126.526 16.0113C126.642 16.0127 126.758 15.9909 126.865 15.9471C126.973 15.9034 127.071 15.8387 127.152 15.757C127.323 15.5931 127.424 15.3719 127.434 15.1382V7.45195C127.425 7.21985 127.324 7.00018 127.152 6.84008C127.07 6.76055 126.972 6.69774 126.864 6.65522C126.756 6.61276 126.641 6.59148 126.526 6.59258H126.335V6.45508H130.652V6.59258H130.482C130.243 6.58972 130.014 6.6786 129.841 6.84008C129.756 6.91807 129.687 7.01283 129.641 7.11827C129.595 7.22365 129.572 7.33733 129.574 7.45195V15.1245C129.573 15.24 129.596 15.3545 129.642 15.4609C129.688 15.5673 129.756 15.6634 129.841 15.7432C129.926 15.8253 130.025 15.8902 130.136 15.9339C130.246 15.9776 130.364 15.9992 130.482 15.9976H130.652V16.142H126.335V15.9976L126.526 16.0113Z" fill="#AD54F2"/>
<path d="M137.149 6.25645C138.669 6.18171 140.161 6.67319 141.324 7.63145C141.842 8.09818 142.249 8.66985 142.517 9.30648C142.784 9.94305 142.906 10.6291 142.873 11.3165C142.907 12.0039 142.785 12.6901 142.517 13.3268C142.249 13.9634 141.843 14.5351 141.324 15.0015C140.121 15.8844 138.657 16.3619 137.153 16.3619C135.647 16.3619 134.184 15.8844 132.981 15.0015C132.461 14.5359 132.053 13.9644 131.786 13.3276C131.518 12.6907 131.397 12.0041 131.432 11.3165C131.408 10.3763 131.652 9.44827 132.136 8.6352C132.605 7.86713 133.299 7.25399 134.129 6.8752C135.074 6.4478 136.107 6.23621 137.149 6.25645ZM134.678 14.5683C134.968 14.9364 135.342 15.2345 135.769 15.4396C136.196 15.6447 136.666 15.7513 137.142 15.7513C137.618 15.7513 138.088 15.6447 138.515 15.4396C138.942 15.2345 139.315 14.9364 139.606 14.5683C140.266 13.6057 140.587 12.4594 140.521 11.3027C140.536 10.4966 140.397 9.69472 140.113 8.9377C139.882 8.32027 139.471 7.78248 138.93 7.39083C138.406 7.02299 137.773 6.8323 137.128 6.8477C136.647 6.83241 136.169 6.93361 135.738 7.14234C135.307 7.35106 134.935 7.66082 134.657 8.04395C133.997 9.007 133.676 10.153 133.741 11.3096C133.683 12.4663 134.011 13.6101 134.678 14.5683Z" fill="#AD54F2"/>
<path d="M14.8492 22H0V4.345C0 3.19263 0.468821 2.08746 1.30333 1.27262C2.13784 0.457775 3.26967 0 4.44984 0H10.322V16.885C10.322 19.8138 12.2511 21.5188 14.8492 22Z" fill="#AD54F2"/>
<path d="M19.8696 0V16.83C19.8622 17.7142 19.6196 18.5813 19.1655 19.3462H17.3138C15.7084 19.3462 14.9058 18.4296 14.9058 16.5962V5.45187H18.6797V2.70187H14.3566L12.8076 0H19.8696Z" fill="#AD54F2"/>
<path d="M151.691 0H151.141V22H151.691V0Z" fill="#AD54F2"/>
</g>
<defs>
<clipPath id="clip0_4890_14924">
<rect width="152" height="22" fill="white"/>
</clipPath>
</defs>
</svg>
