<svg width="25" height="24" viewBox="0 0 25 24" fill="none" xmlns="http://www.w3.org/2000/svg">
<g id="premium">
<path id="Vector" d="M12.332 4.5C10.8487 4.5 9.39863 4.93987 8.16526 5.76398C6.93189 6.58809 5.9706 7.75943 5.40294 9.12987C4.83528 10.5003 4.68676 12.0083 4.97615 13.4632C5.26553 14.918 5.97984 16.2544 7.02873 17.3033C8.07763 18.3522 9.414 19.0665 10.8689 19.3559C12.3237 19.6453 13.8317 19.4968 15.2022 18.9291C16.5726 18.3614 17.7439 17.4001 18.5681 16.1668C19.3922 14.9334 19.832 13.4834 19.832 12C19.832 10.0109 19.0419 8.10322 17.6353 6.6967C16.2288 5.29018 14.3212 4.5 12.332 4.5ZM15.9658 11.52L14.552 12.5925C14.46 12.664 14.3922 12.7621 14.358 12.8735C14.3237 12.9849 14.3247 13.1042 14.3608 13.215L14.9045 14.955C14.944 15.0642 14.9474 15.1831 14.9144 15.2944C14.8813 15.4057 14.8136 15.5035 14.7209 15.5735C14.6283 15.6435 14.5157 15.682 14.3996 15.6834C14.2835 15.6848 14.1701 15.649 14.0758 15.5812L12.6545 14.505C12.5626 14.4377 12.4516 14.4014 12.3377 14.4014C12.2237 14.4014 12.1127 14.4377 12.0208 14.505L10.5995 15.5812C10.5053 15.649 10.3918 15.6848 10.2757 15.6834C10.1596 15.682 10.047 15.6435 9.95438 15.5735C9.86176 15.5035 9.79397 15.4057 9.76093 15.2944C9.7279 15.1831 9.73135 15.0642 9.77078 14.955L10.3108 13.2225C10.3477 13.11 10.3492 12.9889 10.315 12.8755C10.2808 12.7621 10.2125 12.662 10.1195 12.5887L8.69453 11.5125C8.60399 11.4425 8.53681 11.3466 8.50184 11.2376C8.46687 11.1286 8.46576 11.0116 8.49866 10.9019C8.53155 10.7923 8.5969 10.6952 8.6861 10.6234C8.77529 10.5517 8.88414 10.5086 8.99828 10.5H10.772C10.8857 10.4991 10.9962 10.4624 11.0877 10.3951C11.1793 10.3277 11.2473 10.2332 11.282 10.125L11.8258 8.38125C11.8599 8.27215 11.9279 8.17678 12.02 8.10907C12.1121 8.04136 12.2234 8.00484 12.3377 8.00484C12.452 8.00484 12.5633 8.04136 12.6553 8.10907C12.7474 8.17678 12.8155 8.27215 12.8495 8.38125L13.3933 10.125C13.428 10.2332 13.496 10.3277 13.5876 10.3951C13.6791 10.4624 13.7896 10.4991 13.9033 10.5H15.662C15.7781 10.5069 15.8891 10.5493 15.9802 10.6216C16.0713 10.6938 16.1379 10.7922 16.1711 10.9036C16.2043 11.015 16.2023 11.1339 16.1656 11.2442C16.1289 11.3545 16.0591 11.4507 15.9658 11.52Z" fill="#110833"/>
</g>
</svg>
