<svg width="16" height="16" viewBox="0 0 16 16" fill="none" xmlns="http://www.w3.org/2000/svg">
<path d="M0.465822 0.446233C0.179771 0.732042 0.0190758 1.11963 0.0190758 1.52376C0.0190758 1.9279 0.179771 2.31549 0.465822 2.60129L5.86121 7.99047L0.465822 13.3797C0.320089 13.5202 0.203846 13.6884 0.123878 13.8744C0.0439105 14.0603 0.00181815 14.2603 5.76114e-05 14.4627C-0.00170293 14.665 0.0369032 14.8657 0.113624 15.053C0.190345 15.2403 0.303643 15.4105 0.446909 15.5536C0.590175 15.6967 0.760538 15.8099 0.948059 15.8865C1.13558 15.9631 1.3365 16.0017 1.5391 15.9999C1.7417 15.9982 1.94192 15.9561 2.12808 15.8763C2.31424 15.7964 2.48261 15.6803 2.62336 15.5347L8.01875 10.1455L13.4141 15.5347C13.7019 15.8123 14.0873 15.966 14.4874 15.9625C14.8875 15.959 15.2702 15.7987 15.5531 15.5161C15.836 15.2336 15.9965 14.8513 15.9999 14.4517C16.0034 14.0521 15.8496 13.6671 15.5717 13.3797L10.1763 7.99047L15.5717 2.60129C15.8496 2.31385 16.0034 1.92886 15.9999 1.52925C15.9965 1.12964 15.836 0.747377 15.5531 0.464798C15.2702 0.18222 14.8875 0.0219325 14.4874 0.01846C14.0873 0.0149875 13.7019 0.168608 13.4141 0.446233L8.01875 5.83541L2.62336 0.446233C2.33723 0.16051 1.94919 0 1.54459 0C1.13999 0 0.75196 0.16051 0.465822 0.446233Z" fill="#AD54F2"/>
</svg>
