<svg width="30" height="30" viewBox="0 0 24 24" fill="none" xmlns="http://www.w3.org/2000/svg">
<path fill-rule="evenodd" clip-rule="evenodd" d="M8.5 13C8.90665 13 9.3007 12.9461 9.67538 12.8449C11.2001 12.4335 12.4041 11.2409 12.8318 9.72301C12.9414 9.33414 13 8.92391 13 8.5C13 6.01472 10.9853 4 8.5 4C6.01472 4 4 6.01472 4 8.5C4 10.9853 6.01472 13 8.5 13ZM8.5 15C8.76004 15 9.01652 14.9847 9.26858 14.955C10.8458 14.7692 10.4762 13.1075 11.5 12C12.4159 11.0092 14.8013 10.644 14.9594 9.23049C14.9862 8.9907 15 8.74696 15 8.5C15 4.91015 12.0899 2 8.5 2C4.91015 2 2 4.91015 2 8.5C2 12.0899 4.91015 15 8.5 15Z" fill="white"/>
<path fill-rule="evenodd" clip-rule="evenodd" d="M6.55 11.5C6.66046 11.5 6.74873 11.41 6.76199 11.3004C6.86392 10.4577 7.60318 9.80385 8.5 9.80385C9.39682 9.80385 10.1361 10.4577 10.238 11.3004C10.2513 11.41 10.3395 11.5 10.45 11.5H11.55C11.6605 11.5 11.7507 11.4102 11.7436 11.3C11.6371 9.65347 10.2256 8.35 8.5 8.35C6.7744 8.35 5.3629 9.65347 5.25645 11.3C5.24932 11.4102 5.33954 11.5 5.45 11.5H6.55Z" fill="white"/>
<circle cx="6.75" cy="7.25" r="0.75" fill="white"/>
<circle cx="10.25" cy="7.25" r="0.75" fill="white"/>
<circle cx="15.5" cy="15.5" r="5.5" stroke="white" stroke-width="2"/>
<path fill-rule="evenodd" clip-rule="evenodd" d="M13.55 16C13.6605 16 13.7488 16.0899 13.7613 16.1997C13.8604 17.0721 14.601 17.75 15.5 17.75C16.399 17.75 17.1396 17.0721 17.2387 16.1997C17.2512 16.0899 17.3395 16 17.45 16H18.55C18.6605 16 18.7506 16.0898 18.7439 16.2C18.6406 17.9018 17.2278 19.25 15.5 19.25C13.7722 19.25 12.3594 17.9018 12.2561 16.2C12.2494 16.0898 12.3395 16 12.45 16H13.55Z" fill="white"/>
<circle cx="13.75" cy="14.25" r="0.75" fill="white"/>
<circle cx="17.25" cy="14.25" r="0.75" fill="white"/>
</svg>
