<svg width="16" height="16" viewBox="0 0 16 16" fill="none" xmlns="http://www.w3.org/2000/svg">
<path d="M1.33315 7.33306H13.0571L9.52848 3.8044C9.46481 3.7429 9.41402 3.66933 9.37908 3.588C9.34414 3.50666 9.32575 3.41918 9.32498 3.33066C9.32421 3.24214 9.34108 3.15436 9.3746 3.07243C9.40812 2.99049 9.45762 2.91606 9.52022 2.85347C9.58281 2.79087 9.65725 2.74137 9.73918 2.70785C9.82111 2.67433 9.9089 2.65746 9.99742 2.65823C10.0859 2.659 10.1734 2.67739 10.2548 2.71233C10.3361 2.74727 10.4097 2.79806 10.4711 2.86173L15.1378 7.5284C15.2628 7.65341 15.333 7.82295 15.333 7.99973C15.333 8.1765 15.2628 8.34604 15.1378 8.47106L10.4711 13.1377C10.3454 13.2592 10.177 13.3264 10.0022 13.3248C9.82742 13.3233 9.66021 13.2532 9.5366 13.1296C9.413 13.006 9.34289 12.8388 9.34137 12.664C9.33985 12.4892 9.40704 12.3208 9.52848 12.1951L13.0571 8.66639H1.33315C1.15634 8.66639 0.986768 8.59616 0.861744 8.47113C0.736719 8.34611 0.666482 8.17654 0.666482 7.99973C0.666482 7.82292 0.736719 7.65335 0.861744 7.52832C0.986768 7.4033 1.15634 7.33306 1.33315 7.33306Z" fill="#5D5775"/>
</svg>
