<svg width="25" height="24" viewBox="0 0 25 24" fill="none" xmlns="http://www.w3.org/2000/svg">
<g id="save">
<path id="Vector" d="M18.5 2H6.5C6.23478 2 5.98043 2.10536 5.79289 2.29289C5.60536 2.48043 5.5 2.73478 5.5 3V21C5.49999 21.1912 5.55477 21.3783 5.65785 21.5393C5.76094 21.7003 5.90801 21.8284 6.08164 21.9083C6.25527 21.9883 6.44819 22.0169 6.63754 21.9906C6.82688 21.9643 7.00473 21.8843 7.15 21.76L12.5 17.27L17.79 21.71C17.8834 21.8027 17.9943 21.876 18.1161 21.9258C18.2379 21.9755 18.3684 22.0008 18.5 22C18.6312 22.0034 18.7613 21.976 18.88 21.92C19.0626 21.845 19.2189 21.7176 19.3293 21.5539C19.4396 21.3901 19.499 21.1974 19.5 21V3C19.5 2.73478 19.3946 2.48043 19.2071 2.29289C19.0196 2.10536 18.7652 2 18.5 2ZM17.5 18.86L13.14 15.2C12.9603 15.0503 12.7339 14.9684 12.5 14.9684C12.2661 14.9684 12.0397 15.0503 11.86 15.2L7.5 18.86V4H17.5V18.86Z" fill="white"/>
</g>
</svg>
