<svg width="40" height="40" viewBox="0 0 40 40" fill="none" xmlns="http://www.w3.org/2000/svg">
<path fillRule="evenodd" clipRule="evenodd" d="M25.1157 18.9245C25.1157 22.1966 22.4632 24.8491 19.1911 24.8491C15.9191 24.8491 13.2666 22.1966 13.2666 18.9245C13.2666 15.6525 15.9191 13 19.1911 13C22.4632 13 25.1157 15.6525 25.1157 18.9245ZM23.9378 25.2708C22.6147 26.262 20.9715 26.8491 19.1911 26.8491C14.8145 26.8491 11.2666 23.3011 11.2666 18.9245C11.2666 14.5479 14.8145 11 19.1911 11C23.5677 11 27.1157 14.5479 27.1157 18.9245C27.1157 20.8411 26.4353 22.5988 25.3029 23.9691L28.7239 27.3901C29.0921 27.7583 29.0921 28.3553 28.7239 28.7235C28.3557 29.0917 27.7587 29.0917 27.3905 28.7235L23.9378 25.2708Z" fill="#CE99F7"/>
</svg>
