<svg width="20" height="20" viewBox="0 0 22 20" fill="none" xmlns="http://www.w3.org/2000/svg">
<g id="Glyph">
<path id="Vector" d="M15.7999 3.27949C15.7999 2.70987 15.9688 2.15303 16.2852 1.67941C16.6017 1.20578 17.0515 0.836634 17.5778 0.618648C18.104 0.400662 18.6831 0.343627 19.2418 0.454755C19.8005 0.565884 20.3137 0.840184 20.7164 1.24297C21.1192 1.64576 21.3935 2.15894 21.5047 2.71762C21.6158 3.2763 21.5588 3.85538 21.3408 4.38165C21.1228 4.90791 20.7536 5.35772 20.28 5.67419C19.8064 5.99065 19.2496 6.15957 18.6799 6.15957C17.9161 6.15957 17.1835 5.85613 16.6434 5.31601C16.1033 4.77589 15.7999 4.04333 15.7999 3.27949ZM1.39948 4.23952H12.9198C13.1744 4.23952 13.4186 4.13837 13.5986 3.95833C13.7787 3.77829 13.8798 3.53411 13.8798 3.27949C13.8798 3.02488 13.7787 2.78069 13.5986 2.60065C13.4186 2.42061 13.1744 2.31947 12.9198 2.31947H1.39948C1.14486 2.31947 0.900678 2.42061 0.720638 2.60065C0.540598 2.78069 0.439453 3.02488 0.439453 3.27949C0.439453 3.53411 0.540598 3.77829 0.720638 3.95833C0.900678 4.13837 1.14486 4.23952 1.39948 4.23952ZM7.15963 7.11959C6.56543 7.12126 5.98629 7.30668 5.5016 7.65043C5.01692 7.99417 4.65042 8.47942 4.45236 9.03964H1.39948C1.14486 9.03964 0.900678 9.14079 0.720638 9.32082C0.540598 9.50086 0.439453 9.74505 0.439453 9.99967C0.439453 10.2543 0.540598 10.4985 0.720638 10.6785C0.900678 10.8585 1.14486 10.9597 1.39948 10.9597H4.45236C4.62848 11.4578 4.93823 11.8979 5.34772 12.2318C5.75721 12.5657 6.25065 12.7805 6.77405 12.8527C7.29744 12.9249 7.83062 12.8518 8.31522 12.6413C8.79982 12.4307 9.21718 12.091 9.52162 11.6592C9.82606 11.2273 10.0058 10.7201 10.0413 10.1929C10.0768 9.66576 9.96651 9.139 9.72264 8.67029C9.47877 8.20159 9.11066 7.809 8.65861 7.5355C8.20656 7.26199 7.68798 7.11811 7.15963 7.11959ZM20.6 9.03964H12.9198C12.6652 9.03964 12.421 9.14079 12.2409 9.32082C12.0609 9.50086 11.9598 9.74505 11.9598 9.99967C11.9598 10.2543 12.0609 10.4985 12.2409 10.6785C12.421 10.8585 12.6652 10.9597 12.9198 10.9597H20.6C20.8546 10.9597 21.0988 10.8585 21.2788 10.6785C21.4589 10.4985 21.56 10.2543 21.56 9.99967C21.56 9.74505 21.4589 9.50086 21.2788 9.32082C21.0988 9.14079 20.8546 9.03964 20.6 9.03964ZM9.07968 15.7598H1.39948C1.14486 15.7598 0.900678 15.861 0.720638 16.041C0.540598 16.221 0.439453 16.4652 0.439453 16.7198C0.439453 16.9745 0.540598 17.2186 0.720638 17.3987C0.900678 17.5787 1.14486 17.6799 1.39948 17.6799H9.07968C9.33429 17.6799 9.57848 17.5787 9.75852 17.3987C9.93856 17.2186 10.0397 16.9745 10.0397 16.7198C10.0397 16.4652 9.93856 16.221 9.75852 16.041C9.57848 15.861 9.33429 15.7598 9.07968 15.7598ZM20.6 15.7598H17.5471C17.3206 15.1193 16.875 14.5794 16.289 14.2356C15.703 13.8919 15.0143 13.7664 14.3447 13.8812C13.6751 13.9961 13.0677 14.344 12.6298 14.8635C12.1918 15.3829 11.9517 16.0404 11.9517 16.7198C11.9517 17.3992 12.1918 18.0568 12.6298 18.5762C13.0677 19.0956 13.6751 19.4436 14.3447 19.5584C15.0143 19.6733 15.703 19.5478 16.289 19.204C16.875 18.8603 17.3206 18.3204 17.5471 17.6799H20.6C20.8546 17.6799 21.0988 17.5787 21.2788 17.3987C21.4589 17.2186 21.56 16.9745 21.56 16.7198C21.56 16.4652 21.4589 16.221 21.2788 16.041C21.0988 15.861 20.8546 15.7598 20.6 15.7598Z" fill="#5D5775"/>
</g>
</svg>
