<svg width="24" height="24" viewBox="0 0 24 24" fill="none" xmlns="http://www.w3.org/2000/svg">
<g id="Icon/Link">
<path id="Vector" d="M12.8019 9.03382V6.74909C12.8019 6.55042 12.8862 6.35989 13.0363 6.2194C13.1864 6.07892 13.3899 6 13.6021 6C13.812 6.00083 14.0132 6.07885 14.1622 6.21724L19.7633 11.4609C19.8383 11.5305 19.8978 11.6134 19.9385 11.7046C19.9791 11.7959 20 11.8938 20 11.9927C20 12.0916 19.9791 12.1895 19.9385 12.2808C19.8978 12.3721 19.8383 12.4549 19.7633 12.5246L14.1622 17.7682C14.0499 17.8713 13.9076 17.9411 13.7531 17.9689C13.5987 17.9967 13.4389 17.9812 13.2937 17.9245C13.1486 17.8678 13.0245 17.7722 12.9371 17.6498C12.8496 17.5274 12.8026 17.3836 12.8019 17.2364V14.9142H12.1218C10.8576 14.8965 9.60447 15.1366 8.44935 15.6178C7.29422 16.099 6.26478 16.8098 5.43249 17.7008C5.33218 17.8258 5.19261 17.9183 5.03334 17.9653C4.87406 18.0123 4.70306 18.0115 4.54431 17.963C4.38275 17.9119 4.24284 17.8139 4.14496 17.6832C4.04708 17.5525 3.99637 17.396 4.0002 17.2364C4.0002 10.4047 10.4655 9.23607 12.8019 9.03382ZM12.1218 13.401C12.657 13.3995 13.1917 13.432 13.7221 13.4984C13.9116 13.5253 14.0844 13.615 14.2092 13.751C14.334 13.8871 14.4025 14.0606 14.4023 14.24V15.4311L18.067 11.9927L14.4023 8.5544V9.74546C14.4023 9.94413 14.318 10.1347 14.1679 10.2751C14.0178 10.4156 13.8143 10.4945 13.6021 10.4945C12.874 10.4945 7.11282 10.6444 5.86457 15.3112C7.67637 14.0606 9.87083 13.3907 12.1218 13.401Z" fill="white"/>
</g>
</svg>
