<svg width="36" height="36" viewBox="0 0 36 36" fill="none" xmlns="http://www.w3.org/2000/svg">
<path d="M22.475 20.9114L21.437 19.8734L21.3644 20.6313C22.61 19.1791 23.2535 17.1977 22.9006 15.0919C22.4128 12.2081 20.0047 9.90521 17.0985 9.55252C12.7079 9.0131 9.01281 12.706 9.55255 17.094C9.90545 19.9986 12.2097 22.4052 15.0952 22.8928C17.2023 23.2454 19.1847 22.6023 20.6379 21.3575L19.88 21.4294L20.9181 22.4674L24.6343 26.181C25.0598 26.6063 25.7553 26.6063 26.1808 26.181C26.6064 25.7557 26.6064 25.0607 26.1808 24.6354L22.475 20.9114ZM16.2473 20.9114C13.6628 20.9114 11.5766 18.8264 11.5766 16.2434C11.5766 13.6604 13.6628 11.5753 16.2473 11.5753C18.8318 11.5753 20.9181 13.6604 20.9181 16.2434C20.9181 18.8264 18.8318 20.9114 16.2473 20.9114Z" fill="#5D5775"/>
</svg>
