<svg width="24" height="24" viewBox="0 0 24 24" fill="none" xmlns="http://www.w3.org/2000/svg">
<path d="M11.0767 7.21993C11.4183 6.39864 12.5817 6.39864 12.9233 7.21993L13.8815 9.52358C14.0255 9.86981 14.3511 10.1064 14.7249 10.1363L17.2119 10.3357C18.0985 10.4068 18.458 11.5133 17.7825 12.092L15.8877 13.7151C15.6029 13.9591 15.4785 14.3418 15.5655 14.7066L16.1444 17.1335C16.3508 17.9987 15.4096 18.6825 14.6505 18.2189L12.5213 16.9184C12.2012 16.7229 11.7988 16.7229 11.4787 16.9184L9.34954 18.2189C8.59044 18.6825 7.64919 17.9987 7.85558 17.1335L8.43448 14.7066C8.52148 14.3418 8.39711 13.9591 8.11232 13.7151L6.2175 12.092C5.54197 11.5133 5.90149 10.4068 6.78815 10.3357L9.27513 10.1363C9.64892 10.1064 9.97453 9.86981 10.1185 9.52358L11.0767 7.21993Z" fill="#5D5775"/>
</svg>
