<svg width="40" height="40" viewBox="0 0 40 40" fill="none" xmlns="http://www.w3.org/2000/svg">
<rect x="0.5" y="0.5" width="39" height="39" fill="#FDFCFF"/>
<rect x="0.5" y="0.5" width="39" height="39" stroke="#F2EEFE"/>
<path d="M23.3078 20.0281C23.3084 19.9185 23.2874 19.8098 23.2459 19.7082C23.2044 19.6067 23.1433 19.5143 23.0661 19.4365L18.0661 14.4365C17.9092 14.2796 17.6964 14.1914 17.4744 14.1914C17.2525 14.1914 17.0397 14.2796 16.8828 14.4365C16.7259 14.5934 16.6377 14.8062 16.6377 15.0281C16.6377 15.2501 16.7259 15.4629 16.8828 15.6198L21.2994 20.0281L16.8911 24.4365C16.7546 24.5959 16.6832 24.801 16.6913 25.0107C16.6994 25.2204 16.7864 25.4194 16.9348 25.5678C17.0832 25.7162 17.2822 25.8031 17.4919 25.8112C17.7016 25.8193 17.9067 25.748 18.0661 25.6115L23.0661 20.6115C23.2201 20.4563 23.3069 20.2468 23.3078 20.0281Z" fill="#5D5775"/>
</svg>
