<svg width="30" height="30" viewBox="0 0 30 30" fill="none" xmlns="http://www.w3.org/2000/svg">
<g id="twitter (1)">
<path id="_x30_4.Twitter" d="M26.9687 7.56C26.0687 7.95 25.1387 8.22 24.1487 8.34C25.1687 7.74 25.9487 6.78 26.3087 5.61C25.3487 6.18 24.2987 6.57 23.1887 6.81C22.2887 5.85 20.9987 5.25 19.5887 5.25C16.8587 5.25 14.6687 7.47 14.6687 10.17C14.6687 10.56 14.6987 10.92 14.7887 11.28C10.7087 11.1 7.10875 9.12 4.67875 6.15C2.93875 9.27 4.88875 11.85 6.17875 12.72C5.39875 12.72 4.61875 12.48 3.95875 12.12C3.95875 14.55 5.66875 16.56 7.88875 17.01C7.40875 17.16 6.32875 17.25 5.66875 17.1C6.29875 19.05 8.12875 20.49 10.2587 20.52C8.57875 21.84 6.11875 22.89 2.96875 22.56C5.15875 23.97 7.73875 24.78 10.5287 24.78C19.5887 24.78 24.5087 17.28 24.5087 10.8C24.5087 10.59 24.5087 10.38 24.4787 10.17C25.4987 9.42 26.3387 8.55 26.9687 7.56Z" fill="#5D5775"/>
</g>
</svg>
