<svg width="29" height="30" viewBox="0 0 29 30" fill="none" xmlns="http://www.w3.org/2000/svg">
<g id="Group 41">
<g id="Group 39">
<path id="Rectangle 1104" d="M5.42397 12.3817C5.24097 12.1581 5.25723 11.8321 5.46157 11.6278L7.12815 9.96121C7.33249 9.75687 7.65843 9.74061 7.88209 9.92361L16.195 16.7251C16.224 16.7488 16.2505 16.7753 16.2742 16.8042L23.0757 25.1172C23.2586 25.3408 23.2424 25.6668 23.038 25.8711L21.3715 27.5377C21.1671 27.742 20.8412 27.7583 20.6175 27.5753L12.3046 20.7738C12.2757 20.7501 12.2491 20.7236 12.2255 20.6946L5.42397 12.3817Z" fill="#5D5775"/>
<path id="Rectangle 1109" d="M12.512 8.00653C12.5407 7.71898 12.7827 7.5 13.0717 7.5H15.4286C15.7176 7.5 15.9595 7.71898 15.9883 8.00653L17.057 18.694C17.0607 18.7312 17.0607 18.7688 17.057 18.806L15.9883 29.4935C15.9595 29.781 15.7176 30 15.4286 30H13.0717C12.7827 30 12.5407 29.781 12.512 29.4935L11.4432 18.806C11.4395 18.7688 11.4395 18.7312 11.4432 18.694L12.512 8.00653Z" fill="#5D5775"/>
<path id="Rectangle 1106" d="M24.9935 17.0129C25.281 17.0417 25.5 17.2837 25.5 17.5727L25.5 19.9295C25.5 20.2185 25.281 20.4605 24.9935 20.4893L14.306 21.558C14.2687 21.5617 14.2312 21.5617 14.194 21.558L3.50653 20.4893C3.21898 20.4605 3 20.2185 3 19.9295L3 17.5727C3 17.2837 3.21898 17.0417 3.50653 17.0129L14.194 15.9442C14.2312 15.9405 14.2688 15.9405 14.306 15.9442L24.9935 17.0129Z" fill="#5D5775"/>
<path id="Rectangle 1108" d="M20.6178 9.92446C20.8414 9.74146 21.1674 9.75772 21.3717 9.96206L23.0383 11.6286C23.2426 11.833 23.2589 12.1589 23.0759 12.3826L16.2744 20.6955C16.2507 20.7245 16.2242 20.751 16.1953 20.7747L7.88234 27.5761C7.65868 27.7591 7.33274 27.7429 7.1284 27.5385L5.46183 25.872C5.25748 25.6676 5.24123 25.3417 5.42423 25.118L12.2257 16.8051C12.2494 16.7761 12.2759 16.7496 12.3049 16.7259L20.6178 9.92446Z" fill="#5D5775"/>
<path id="Ellipse 32" d="M23.25 18.75C23.25 23.7206 19.2206 27.75 14.25 27.75C9.27944 27.75 5.25 23.7206 5.25 18.75C5.25 13.7794 9.27944 9.75 14.25 9.75C19.2206 9.75 23.25 13.7794 23.25 18.75Z" fill="white"/>
<path id="Ellipse 32 (Stroke)" fillRule="evenodd" clipRule="evenodd" d="M14.25 23.25C16.7353 23.25 18.75 21.2353 18.75 18.75C18.75 16.2647 16.7353 14.25 14.25 14.25C11.7647 14.25 9.75 16.2647 9.75 18.75C9.75 21.2353 11.7647 23.25 14.25 23.25ZM14.25 27.75C19.2206 27.75 23.25 23.7206 23.25 18.75C23.25 13.7794 19.2206 9.75 14.25 9.75C9.27944 9.75 5.25 13.7794 5.25 18.75C5.25 23.7206 9.27944 27.75 14.25 27.75Z" fill="#5D5775"/>
<path id="Ellipse 33" d="M17.0625 18.75C17.0625 20.3033 15.8033 21.5625 14.25 21.5625C12.6967 21.5625 11.4375 20.3033 11.4375 18.75C11.4375 17.1967 12.6967 15.9375 14.25 15.9375C15.8033 15.9375 17.0625 17.1967 17.0625 18.75Z" fill="#CE99F7"/>
</g>
<path id="Vector 14 (Stroke)" fillRule="evenodd" clipRule="evenodd" d="M3.75 3.75C4.08991 3.75 4.4116 3.90369 4.62517 4.16812L7.25015 7.41812C7.64054 7.90147 7.56519 8.60979 7.08185 9.00018C6.5985 9.39058 5.89019 9.31523 5.4998 8.83188L4.87499 8.0583V13.125C4.87499 13.7463 4.37131 14.25 3.75 14.25C3.12869 14.25 2.62501 13.7463 2.62501 13.125V8.0583L2.0002 8.83188C1.60981 9.31523 0.9015 9.39058 0.418155 9.00018C-0.0651911 8.60979 -0.140543 7.90147 0.249852 7.41812L2.87483 4.16812C3.0884 3.90369 3.41009 3.75 3.75 3.75Z" fill="#CE99F7"/>
<path id="Vector 14 (Stroke)_2" fillRule="evenodd" clipRule="evenodd" d="M14.25 0C14.4539 0 14.647 0.0987993 14.7751 0.268792L16.3501 2.35808C16.5843 2.6688 16.5391 3.12415 16.2491 3.37512C15.9591 3.62609 15.5341 3.57765 15.2999 3.26692L14.925 2.76962V6.02679C14.925 6.42621 14.6228 6.75 14.25 6.75C13.8772 6.75 13.575 6.42621 13.575 6.02679V2.76962L13.2001 3.26692C12.9659 3.57765 12.5409 3.62609 12.2509 3.37512C11.9609 3.12415 11.9157 2.6688 12.1499 2.35808L13.7249 0.268792C13.853 0.0987993 14.0461 0 14.25 0Z" fill="#CE99F7"/>
<path id="Vector 14 (Stroke)_3" fillRule="evenodd" clipRule="evenodd" d="M24.75 3.75C25.0899 3.75 25.4116 3.90369 25.6252 4.16812L28.2501 7.41812C28.6405 7.90147 28.5652 8.60979 28.0818 9.00018C27.5985 9.39058 26.8902 9.31523 26.4998 8.83188L25.875 8.0583V13.125C25.875 13.7463 25.3713 14.25 24.75 14.25C24.1287 14.25 23.625 13.7463 23.625 13.125V8.0583L23.0002 8.83188C22.6098 9.31523 21.9015 9.39058 21.4182 9.00018C20.9348 8.60979 20.8595 7.90147 21.2499 7.41812L23.8748 4.16812C24.0884 3.90369 24.4101 3.75 24.75 3.75Z" fill="#CE99F7"/>
</g>
</svg>
