<svg width="22" height="22" viewBox="0 0 22 22" fill="none" xmlns="http://www.w3.org/2000/svg">
<g id="Group">
<g id="Layer_2_8_">
<g id="Surfaces_9_">
<g id="UI_UX_Surface">
<g id="Outline_no_shadow_9_">
<path id="Vector" d="M4.18043 0.439453H17.8205C19.886 0.439453 21.5605 2.15684 21.5605 4.27534V17.7236C21.5605 19.8421 19.886 21.5595 17.8205 21.5595H4.18043C2.11489 21.5595 0.44043 19.8421 0.44043 17.7236V4.27534C0.44043 2.15684 2.11489 0.439453 4.18043 0.439453Z" fill="#470137"/>
</g>
</g>
</g>
<g id="Outlined_Mnemonics_Logos_8_">
<g id="Xd">
<path id="Vector_2" d="M11.5435 5.99342L8.90823 10.4545L11.7277 15.1917C11.7457 15.2248 11.7508 15.2638 11.7419 15.3007C11.7323 15.3347 11.6994 15.3133 11.6427 15.3229H9.63087C9.48914 15.3229 9.38998 15.3177 9.3333 15.2208C9.14426 14.843 8.95534 14.4676 8.76659 14.0946C8.57754 13.7218 8.37682 13.3415 8.16447 12.9539C7.95196 12.5666 7.7418 12.1742 7.53398 11.7768H7.51979C7.33075 12.1644 7.13474 12.5519 6.93179 12.9393C6.7286 13.3269 6.52788 13.712 6.32968 14.0946C6.13131 14.4774 5.92825 14.8576 5.72048 15.2353C5.68261 15.3225 5.6164 15.3314 5.52207 15.3314H3.58106C3.5434 15.3314 3.52215 15.3467 3.51729 15.3079C3.51197 15.2725 3.51951 15.2363 3.53857 15.2062L6.27296 10.5998L3.6094 5.97887C3.58106 5.94029 3.57636 5.90881 3.59521 5.88444C3.61641 5.85931 3.64792 5.84586 3.68026 5.8481H5.67791C5.72147 5.84565 5.76502 5.85309 5.80545 5.86993C5.83931 5.8896 5.86839 5.91693 5.89046 5.94985C6.06049 6.33742 6.24941 6.7249 6.45718 7.11234C6.66487 7.49991 6.87499 7.88258 7.08767 8.26033C7.30019 8.63813 7.4962 9.02079 7.67567 9.40832H7.68986C7.87866 9.01119 8.06993 8.6237 8.26368 8.24582C8.45718 7.86802 8.6555 7.48777 8.85869 7.10511C9.06172 6.72253 9.25774 6.34228 9.4467 5.9644C9.45755 5.92852 9.47706 5.89608 9.50337 5.86997C9.53835 5.85178 9.57766 5.84421 9.61673 5.84814H11.4727C11.5162 5.83714 11.5603 5.86439 11.571 5.90902C11.5784 5.9402 11.5678 5.97307 11.5435 5.99342Z" fill="#FF61F6"/>
<path id="Vector_3" d="M15.61 15.5113C14.9579 15.5215 14.3118 15.3825 13.7186 15.1044C13.166 14.8421 12.7041 14.4139 12.3939 13.8765C12.0727 13.3293 11.9122 12.6439 11.9122 11.8203C11.9069 11.1534 12.0731 10.4968 12.3939 9.91673C12.7245 9.32587 13.2106 8.84239 13.7966 8.52171C14.4104 8.17298 15.1519 7.99859 16.021 7.99859C16.0681 7.99859 16.1295 8.001 16.2051 8.00587C16.2806 8.01086 16.3704 8.01809 16.4743 8.02766V5.16499C16.4743 5.09734 16.5027 5.06328 16.5594 5.06328H18.3445C18.3856 5.05727 18.4237 5.08655 18.4295 5.12869C18.4305 5.13592 18.4305 5.14324 18.4295 5.15048V13.7385C18.4295 13.9033 18.4366 14.0826 18.4508 14.2762C18.465 14.47 18.4768 14.6444 18.4862 14.7993C18.4897 14.861 18.456 14.9187 18.4011 14.9446C17.9406 15.1416 17.4609 15.2877 16.9702 15.3805C16.5215 15.4655 16.0663 15.5092 15.61 15.5113ZM16.4743 13.7095V9.74242C16.3977 9.72114 16.3195 9.70655 16.2405 9.6988C16.144 9.68886 16.0471 9.684 15.95 9.68429C15.6062 9.68078 15.2665 9.76044 14.9583 9.91677C14.6581 10.0698 14.4019 10.3001 14.2145 10.5852C14.0208 10.8758 13.924 11.2585 13.924 11.7332C13.9171 12.0499 13.9676 12.3653 14.0728 12.6632C14.1584 12.9032 14.2937 13.1214 14.4695 13.3026C14.6378 13.4693 14.8414 13.5936 15.0645 13.6658C15.3002 13.7441 15.5465 13.7833 15.7942 13.7821C15.9263 13.7821 16.0491 13.7772 16.1625 13.7675C16.2682 13.7594 16.3726 13.7399 16.4743 13.7095Z" fill="#FF61F6"/>
</g>
</g>
</g>
</g>
</svg>
